<svg width="24" height="22" viewBox="0 0 24 22" fill="none" xmlns="http://www.w3.org/2000/svg">
<path d="M10.1908 0.285767C8.88303 0.307798 7.70178 1.0878 7.1674 2.29389L13.5658 4.22655C13.8471 2.54889 12.8393 0.922329 11.2174 0.428735C10.9268 0.34061 10.6221 0.292329 10.3174 0.285767H10.1908ZM6.92365 3.10202C6.63771 4.78436 7.64553 6.41561 9.27209 6.9078C10.9033 7.39999 12.6424 6.59374 13.3268 5.0328L6.92365 3.10202ZM19.369 5.17811C18.183 5.1828 16.9221 5.75467 15.9705 7.09999L10.1205 15.3922C8.55021 17.6141 9.23459 19.9391 10.7815 21.0359C12.333 22.1375 14.7471 22.0109 16.3174 19.7891L22.1627 11.5016C23.733 9.27499 23.0487 6.95467 21.5018 5.85311C20.9205 5.44061 20.2221 5.20155 19.4862 5.17811H19.369ZM19.2846 5.98905C19.3455 5.98905 19.4065 5.98905 19.4627 5.99374C20.0299 6.01717 20.5643 6.21874 21.0143 6.54217C22.219 7.3953 22.8237 9.09686 21.469 11.014L18.4455 15.3031C16.7674 14.8531 14.6112 13.3203 13.6315 11.8812L16.6643 7.58749C17.4565 6.46717 18.3987 6.0078 19.2846 5.98905ZM4.27756 9.56092C3.82662 9.56561 3.38177 9.65936 2.96834 9.84217C1.41631 10.5219 0.608649 12.2562 1.08209 13.8875L7.20959 11.2109C6.59553 10.175 5.4799 9.54686 4.27756 9.56092ZM7.5424 11.9797L1.41584 14.6609C2.28068 16.1328 4.10178 16.7234 5.66271 16.0437C7.21896 15.3594 8.02521 13.6156 7.5424 11.9797Z" fill="black"/>
</svg>
